<mxfile host="Electron" modified="2024-06-05T18:47:32.887Z" agent="Mozilla/5.0 (Windows NT 10.0; Win64; x64) AppleWebKit/537.36 (KHTML, like Gecko) draw.io/24.2.5 Chrome/120.0.6099.109 Electron/28.1.0 Safari/537.36" etag="3YqZemJpKpj-aux52oar" version="24.2.5" type="device">
  <diagram name="Página-1" id="7iA6XdMibhA_ffYxHYoF">
    <mxGraphModel dx="1036" dy="606" grid="1" gridSize="10" guides="1" tooltips="1" connect="1" arrows="1" fold="1" page="1" pageScale="1" pageWidth="827" pageHeight="1169" math="0" shadow="0">
      <root>
        <mxCell id="0" />
        <mxCell id="1" parent="0" />
        <mxCell id="0Z-dsk17dAZkFiOY8rXc-1" value="Sincronización" style="rounded=1;whiteSpace=wrap;html=1;fontSize=12;glass=0;strokeWidth=1;shadow=0;" vertex="1" parent="1">
          <mxGeometry x="20" y="94" width="120" height="40" as="geometry" />
        </mxCell>
        <mxCell id="0Z-dsk17dAZkFiOY8rXc-2" value="Obtención de datos&lt;div&gt;(Client&lt;span style=&quot;background-color: initial;&quot;&gt;Data)&lt;/span&gt;&lt;/div&gt;" style="rounded=1;whiteSpace=wrap;html=1;fontSize=12;glass=0;strokeWidth=1;shadow=0;" vertex="1" parent="1">
          <mxGeometry x="120" y="180" width="120" height="40" as="geometry" />
        </mxCell>
        <mxCell id="0Z-dsk17dAZkFiOY8rXc-3" value="" style="endArrow=none;html=1;rounded=0;entryX=0.5;entryY=1;entryDx=0;entryDy=0;" edge="1" parent="1" target="0Z-dsk17dAZkFiOY8rXc-1">
          <mxGeometry width="50" height="50" relative="1" as="geometry">
            <mxPoint x="80" y="200" as="sourcePoint" />
            <mxPoint x="440" y="290" as="targetPoint" />
          </mxGeometry>
        </mxCell>
        <mxCell id="0Z-dsk17dAZkFiOY8rXc-4" value="" style="endArrow=classic;html=1;rounded=0;" edge="1" parent="1" target="0Z-dsk17dAZkFiOY8rXc-2">
          <mxGeometry width="50" height="50" relative="1" as="geometry">
            <mxPoint x="80" y="200" as="sourcePoint" />
            <mxPoint x="440" y="290" as="targetPoint" />
          </mxGeometry>
        </mxCell>
        <mxCell id="0Z-dsk17dAZkFiOY8rXc-5" value="Datos de fichas&lt;div&gt;List&amp;lt;DatosFicha&amp;gt;&lt;/div&gt;" style="rounded=1;whiteSpace=wrap;html=1;fontSize=12;glass=0;strokeWidth=1;shadow=0;" vertex="1" parent="1">
          <mxGeometry x="230" y="250" width="120" height="40" as="geometry" />
        </mxCell>
        <mxCell id="0Z-dsk17dAZkFiOY8rXc-6" value="" style="endArrow=none;html=1;rounded=0;entryX=0.5;entryY=1;entryDx=0;entryDy=0;" edge="1" parent="1">
          <mxGeometry width="50" height="50" relative="1" as="geometry">
            <mxPoint x="180" y="340" as="sourcePoint" />
            <mxPoint x="179.5" y="220" as="targetPoint" />
          </mxGeometry>
        </mxCell>
        <mxCell id="0Z-dsk17dAZkFiOY8rXc-7" value="" style="endArrow=classic;html=1;rounded=0;" edge="1" parent="1">
          <mxGeometry width="50" height="50" relative="1" as="geometry">
            <mxPoint x="180" y="270" as="sourcePoint" />
            <mxPoint x="230" y="269.5" as="targetPoint" />
          </mxGeometry>
        </mxCell>
        <mxCell id="0Z-dsk17dAZkFiOY8rXc-8" value="Datos de clientes&lt;div&gt;List&amp;lt;DatosCliente&amp;gt;&lt;/div&gt;" style="rounded=1;whiteSpace=wrap;html=1;fontSize=12;glass=0;strokeWidth=1;shadow=0;" vertex="1" parent="1">
          <mxGeometry x="230" y="320" width="120" height="40" as="geometry" />
        </mxCell>
        <mxCell id="0Z-dsk17dAZkFiOY8rXc-9" value="" style="endArrow=classic;html=1;rounded=0;" edge="1" parent="1">
          <mxGeometry width="50" height="50" relative="1" as="geometry">
            <mxPoint x="180" y="340" as="sourcePoint" />
            <mxPoint x="230" y="339.5" as="targetPoint" />
          </mxGeometry>
        </mxCell>
        <mxCell id="0Z-dsk17dAZkFiOY8rXc-10" value="Clientes.Nuevo = true" style="text;html=1;align=center;verticalAlign=middle;whiteSpace=wrap;rounded=0;" vertex="1" parent="1">
          <mxGeometry x="230" y="360" width="120" height="30" as="geometry" />
        </mxCell>
        <mxCell id="0Z-dsk17dAZkFiOY8rXc-11" value="Envío de datos&lt;div&gt;(API&lt;span style=&quot;background-color: initial;&quot;&gt;)&lt;/span&gt;&lt;/div&gt;" style="rounded=1;whiteSpace=wrap;html=1;fontSize=12;glass=0;strokeWidth=1;shadow=0;" vertex="1" parent="1">
          <mxGeometry x="400" y="180" width="120" height="40" as="geometry" />
        </mxCell>
        <mxCell id="0Z-dsk17dAZkFiOY8rXc-12" value="" style="endArrow=none;html=1;rounded=0;exitX=1;exitY=0.5;exitDx=0;exitDy=0;" edge="1" parent="1" source="0Z-dsk17dAZkFiOY8rXc-5">
          <mxGeometry width="50" height="50" relative="1" as="geometry">
            <mxPoint x="390" y="340" as="sourcePoint" />
            <mxPoint x="460" y="270" as="targetPoint" />
          </mxGeometry>
        </mxCell>
        <mxCell id="0Z-dsk17dAZkFiOY8rXc-13" value="" style="endArrow=classic;html=1;rounded=0;entryX=0.5;entryY=1;entryDx=0;entryDy=0;" edge="1" parent="1" target="0Z-dsk17dAZkFiOY8rXc-11">
          <mxGeometry width="50" height="50" relative="1" as="geometry">
            <mxPoint x="460" y="340" as="sourcePoint" />
            <mxPoint x="440" y="290" as="targetPoint" />
          </mxGeometry>
        </mxCell>
        <mxCell id="0Z-dsk17dAZkFiOY8rXc-14" value="" style="endArrow=none;html=1;rounded=0;exitX=1;exitY=0.5;exitDx=0;exitDy=0;" edge="1" parent="1" source="0Z-dsk17dAZkFiOY8rXc-8">
          <mxGeometry width="50" height="50" relative="1" as="geometry">
            <mxPoint x="390" y="340" as="sourcePoint" />
            <mxPoint x="460" y="340" as="targetPoint" />
          </mxGeometry>
        </mxCell>
        <mxCell id="0Z-dsk17dAZkFiOY8rXc-15" value="¿Sincronización correcta?" style="rhombus;whiteSpace=wrap;html=1;shadow=0;fontFamily=Helvetica;fontSize=12;align=center;strokeWidth=1;spacing=6;spacingTop=-4;" vertex="1" parent="1">
          <mxGeometry x="570" y="160" width="130" height="80" as="geometry" />
        </mxCell>
        <mxCell id="0Z-dsk17dAZkFiOY8rXc-16" value="" style="endArrow=classic;html=1;rounded=0;entryX=0;entryY=0.5;entryDx=0;entryDy=0;exitX=1;exitY=0.5;exitDx=0;exitDy=0;" edge="1" parent="1" source="0Z-dsk17dAZkFiOY8rXc-11" target="0Z-dsk17dAZkFiOY8rXc-15">
          <mxGeometry width="50" height="50" relative="1" as="geometry">
            <mxPoint x="390" y="340" as="sourcePoint" />
            <mxPoint x="440" y="290" as="targetPoint" />
          </mxGeometry>
        </mxCell>
        <mxCell id="0Z-dsk17dAZkFiOY8rXc-17" value="Yes" style="text;html=1;align=center;verticalAlign=middle;whiteSpace=wrap;rounded=0;" vertex="1" parent="1">
          <mxGeometry x="540" y="250" width="120" height="30" as="geometry" />
        </mxCell>
        <mxCell id="0Z-dsk17dAZkFiOY8rXc-18" value="No" style="text;html=1;align=center;verticalAlign=middle;whiteSpace=wrap;rounded=0;" vertex="1" parent="1">
          <mxGeometry x="710" y="170" width="70" height="30" as="geometry" />
        </mxCell>
        <mxCell id="0Z-dsk17dAZkFiOY8rXc-19" value="Borrado datos SQLite" style="rounded=1;whiteSpace=wrap;html=1;fontSize=12;glass=0;strokeWidth=1;shadow=0;" vertex="1" parent="1">
          <mxGeometry x="575" y="320" width="120" height="40" as="geometry" />
        </mxCell>
        <mxCell id="0Z-dsk17dAZkFiOY8rXc-20" value="" style="endArrow=classic;html=1;rounded=0;exitX=0.5;exitY=1;exitDx=0;exitDy=0;entryX=0.5;entryY=0;entryDx=0;entryDy=0;" edge="1" parent="1" source="0Z-dsk17dAZkFiOY8rXc-15" target="0Z-dsk17dAZkFiOY8rXc-19">
          <mxGeometry width="50" height="50" relative="1" as="geometry">
            <mxPoint x="390" y="340" as="sourcePoint" />
            <mxPoint x="440" y="290" as="targetPoint" />
          </mxGeometry>
        </mxCell>
        <mxCell id="0Z-dsk17dAZkFiOY8rXc-21" value="Menú principal" style="rounded=1;whiteSpace=wrap;html=1;fontSize=12;glass=0;strokeWidth=1;shadow=0;" vertex="1" parent="1">
          <mxGeometry x="670" y="410" width="120" height="40" as="geometry" />
        </mxCell>
        <mxCell id="0Z-dsk17dAZkFiOY8rXc-22" value="" style="endArrow=classic;html=1;rounded=0;entryX=0.5;entryY=0;entryDx=0;entryDy=0;exitX=0.5;exitY=1;exitDx=0;exitDy=0;" edge="1" parent="1" source="0Z-dsk17dAZkFiOY8rXc-19" target="0Z-dsk17dAZkFiOY8rXc-21">
          <mxGeometry width="50" height="50" relative="1" as="geometry">
            <mxPoint x="390" y="340" as="sourcePoint" />
            <mxPoint x="440" y="290" as="targetPoint" />
          </mxGeometry>
        </mxCell>
        <mxCell id="0Z-dsk17dAZkFiOY8rXc-23" value="" style="endArrow=none;html=1;rounded=0;entryX=1;entryY=0.5;entryDx=0;entryDy=0;" edge="1" parent="1" target="0Z-dsk17dAZkFiOY8rXc-15">
          <mxGeometry width="50" height="50" relative="1" as="geometry">
            <mxPoint x="740" y="200" as="sourcePoint" />
            <mxPoint x="440" y="290" as="targetPoint" />
          </mxGeometry>
        </mxCell>
        <mxCell id="0Z-dsk17dAZkFiOY8rXc-24" value="" style="endArrow=classic;html=1;rounded=0;" edge="1" parent="1">
          <mxGeometry width="50" height="50" relative="1" as="geometry">
            <mxPoint x="740" y="200" as="sourcePoint" />
            <mxPoint x="730" y="410" as="targetPoint" />
          </mxGeometry>
        </mxCell>
      </root>
    </mxGraphModel>
  </diagram>
</mxfile>
